<svg xmlns="http://www.w3.org/2000/svg" width="480" height="480" fill="none" xmlns:v="https://vecta.io/nano"><path d="M240 480c132.548 0 240-107.452 240-240S372.548 0 240 0 0 107.452 0 240s107.452 240 240 240z" fill="#bc002d"/><path d="M179.16 376.272c.427-1.28.384-4.011-.128-8.192 0-1.365-.384-3.371-1.152-6.016l-9.216 1.408-6.272.64c-1.109 0-1.835-.043-2.176-.128-.683-.171-1.024-.896-1.024-2.176 0-1.365.341-2.56 1.024-3.584.683-1.109 1.323-1.792 1.92-2.048 1.28-.768 3.157-1.579 5.632-2.432 0-.171 2.091-.853 6.272-2.048 2.645-1.195 6.016-2.048 10.112-2.56.341-.085.597-.128.768-.128l2.176-.384h3.712l2.944.896c1.109.341 2.859 1.579 5.248 3.712l.256.768c.683.512 1.024.853 1.024 1.024s.043.427.128.768c0 2.133-.597 3.413-1.792 3.84-.341.085-1.28.043-2.816-.128-2.901-.341-4.736-.256-5.504.256 0 .853.128 1.579.384 2.176.256.512.768 2.773 1.536 6.784 0 .597.341 2.432 1.024 5.504.768 2.987 1.237 6.357 1.408 10.112.939 2.048 1.408 7.723 1.408 17.024.085.512.128 1.237.128 2.176-.256.512-.384 1.792-.384 3.84-.171.683-.256 1.536-.256 2.56-.171.597-.299 1.365-.384 2.304-.085.853-.171 1.536-.256 2.048-.256 1.451-.64 2.432-1.152 2.944-.427.427-.768 1.664-1.024 3.712 0 .171-.341.768-1.024 1.792-.597 1.024-1.152 1.707-1.664 2.048l-1.024 1.152c0 .512-.853 1.621-2.56 3.328l-.896 1.024c-.512.341-1.621 1.451-3.328 3.328-.085.341-1.109.811-3.072 1.408-1.877.597-3.925.597-6.144 0-1.195-.171-2.475-.939-3.84-2.304-.341.085-.555.085-.64 0-.683-.683-2.048-1.451-4.096-2.304-.171.171-1.195-.597-3.072-2.304-.427-.085-2.005-1.707-4.736-4.864-.085-.427-.512-1.408-1.28-2.944 0-.085-.213-.768-.64-2.048-.341-1.365-.597-3.285-.768-5.76v-.896c0-.512.512-2.048 1.536-4.608 1.707-1.963 3.84-2.005 6.4-.128a10.81 10.81 0 0 0 1.408 3.712c.683 1.024 1.152 2.005 1.408 2.944.597 2.133 2.133 4.608 4.608 7.424.939.939 2.219 1.451 3.84 1.536.341-.085 1.664-1.109 3.968-3.072.341-.341.683-.939 1.024-1.792.853-1.195 1.28-1.92 1.28-2.176a97.4 97.4 0 0 1 .64-1.792c0-.085.341-1.024 1.024-2.816.768-1.365.939-3.413.512-6.144-.085-.085-.128-.384-.128-.896l-.512-3.712v-1.152c-.085-.085-.128-.213-.128-.384l.256-2.56c-.341-.512-.725-1.877-1.152-4.096-.853-3.669-.939-6.656-.256-8.96 0-.085-.085-.427-.256-1.024-.171-.683-.213-1.323-.128-1.92l-.128-3.712zm30.606 6.784l.64-2.176c0-1.451.256-2.517.768-3.2l.512-1.28c.171 0 .384-.469.64-1.408.341-.939.469-1.664.384-2.176 0-.597.427-1.408 1.28-2.432l2.56-6.016c.171-1.024.213-1.621.128-1.792 0-.256.341-.811 1.024-1.664s.939-1.408.768-1.664c0-.853 1.237-2.219 3.712-4.096.939-.427 1.621-.683 2.048-.768s.939-.256 1.536-.512l1.28-.64c.171-.171.555-.384 1.152-.64s1.067-.384 1.408-.384c.341-.085.811-.171 1.408-.256.597-.171 1.152-.256 1.664-.256 1.963 0 3.456.256 4.48.768s1.621.768 1.792.768l7.424 4.608c.853 0 1.92.939 3.2 2.816.853.341 1.28.683 1.28 1.024.085.256.469.683 1.152 1.28.683.512 1.28.853 1.792 1.024.512.085.853.768 1.024 2.048l-.64 9.856c.085.427 0 1.493-.256 3.2-.256 1.621-.811 2.944-1.664 3.968-1.792.768-3.925 1.152-6.4 1.152-2.389 0-3.627-.043-3.712-.128-.939-.171-1.408-1.365-1.408-3.584l-.256-5.504.128-5.632c0-.256-.512-.853-1.536-1.792-.939-.939-1.664-1.451-2.176-1.536-2.219-.171-3.797.811-4.736 2.944-1.024.853-1.963 1.877-2.816 3.072-.597.171-1.152 1.067-1.664 2.688-.512 1.536-.853 3.029-1.024 4.48l-3.84 12.032c-.512 6.229-.725 9.643-.64 10.24s0 1.536-.256 2.816c0 3.072.213 6.528.64 10.368.939 2.56 1.792 4.181 2.56 4.864 1.28 1.28 3.456 1.963 6.528 2.048 3.072 0 5.205-.512 6.4-1.536l3.328-2.944.896-1.152c.341 0 .683-.683 1.024-2.048 2.133-2.816 3.499-4.48 4.096-4.992.683-.597 1.365-.768 2.048-.512.256.256.64.512 1.152.768.597.171 1.067.469 1.408.896.683 1.195 1.237 1.792 1.664 1.792.512 0 1.28 1.365 2.304 4.096.853 3.072.853 5.248 0 6.528l-.768 2.176c-.683.683-1.195 1.323-1.536 1.92l-.896 2.688c0 .171-.384.597-1.152 1.28-.768.597-1.28.939-1.536 1.024-.256 0-1.024.469-2.304 1.408-2.133 1.707-4.736 2.603-7.808 2.688-2.987.171-4.736 0-5.248-.512-.939 0-1.493-.043-1.664-.128-.256-.512-1.067-.768-2.432-.768l-1.024-.128-2.304-.768h-1.792c-1.28 0-2.517-.384-3.712-1.152s-2.048-1.109-2.56-1.024c-.427 0-1.536-.853-3.328-2.56s-2.944-2.859-3.456-3.456c-.512-.683-1.109-1.707-1.792-3.072l-2.048-3.968a10.98 10.98 0 0 1-1.152-4.352c-.085-1.536-.171-2.56-.256-3.072l-.512-2.944c-.256-1.451-.213-2.731.128-3.84.427-1.109.427-3.243 0-6.4 0-1.792.171-3.499.512-5.12l1.664-6.144c.512-1.963.768-3.029.768-3.2zm113.582 7.424l-.384 10.368v.896a22.13 22.13 0 0 0-.128 2.432c.256 1.28.341 2.091.256 2.432v1.408c0 .597-.128 1.493-.384 2.688l.512 1.792c0 .256.043.811.128 1.664.171.768.171 1.365 0 1.792-.085.427-.085 1.408 0 2.944l.256 2.56v1.28l.256 2.176c.683 2.56.939 4.395.768 5.504v3.072c0 1.963-.896 3.029-2.688 3.2l-2.304-.256c-1.024-.256-3.072-1.28-6.144-3.072-1.621-1.877-2.517-3.243-2.688-4.096-.085-.853-.299-1.621-.64-2.304-.683-1.621-.939-3.499-.768-5.632l-.256-3.968c-.341-1.024-.512-1.664-.512-1.92l.512-1.92-.64-5.376c-.256-1.365-.213-3.157.128-5.376-.853-.512-1.963-.64-3.328-.384l-1.408.128c-.683 0-2.432.256-5.248.768h-3.584c-.853 0-1.493-.043-1.92-.128-.512-.085-1.237-.512-2.176-1.28l-3.2-1.024-1.536-.64c-.171-.171-.512-.171-1.024 0 0 1.109.171 3.371.512 6.784l-.128.896c0 1.024-.085 2.133-.256 3.328l.128 1.28-.128 2.176v2.432c.341.341.299.981-.128 1.92v2.816l-.64 4.608.128 2.304-.384 2.176c0 1.195-.256 2.091-.768 2.688s-1.109.939-1.792 1.024c-.597.085-1.493.128-2.688.128-1.109 0-1.963.085-2.56.256l-3.072-.256-1.664-1.024c-.853-.341-1.28-.64-1.28-.896-.853-.853-1.579-2.005-2.176-3.456-.427-1.707-.469-2.901-.128-3.584-.427-1.024-.469-1.792-.128-2.304l-.512-2.816c0-.341-.085-.683-.256-1.024l.384-2.816c0-.683-.043-1.237-.128-1.664.085-.341.128-.896.128-1.664l.256-5.76.64-1.92c-.256-.512-.384-1.109-.384-1.792 0-.768.128-1.664.384-2.688 0-1.195.213-3.371.64-6.528s.811-4.949 1.152-5.376c-.341-.171-.512-.64-.512-1.408l.64-6.656c.256-.597.384-1.109.384-1.536-.256-.939-.299-1.707-.128-2.304.256-.683.341-1.237.256-1.664-.085-.512.043-1.237.384-2.176s.384-1.621.128-2.048c.512-1.536.768-2.603.768-3.2.171-.512.256-1.152.256-1.92.853-2.304 1.152-4.395.896-6.272.171-.768.64-1.536 1.408-2.304 0-.085.085-.384.256-.896l.384-1.536c.341-.597 1.195-1.408 2.56-2.432l.768-.256c1.621-.939 3.413-1.237 5.376-.896 3.072.427 4.565 2.005 4.48 4.736.171.512.256 1.109.256 1.792v.896c-.171.512-.427 2.048-.768 4.608-.256 2.475-.341 4.096-.256 4.864l-1.024 9.344v2.432l-.384 6.144c-.085.171-.128.597-.128 1.28 1.195.341 4.992.597 11.392.768 4.693.597 7.339 1.109 7.936 1.536 1.28 0 2.261.085 2.944.256-1.024-2.731-.981-4.48.128-5.248 0-2.731-.085-4.864-.256-6.4.341-3.157.469-4.992.384-5.504-.341-.768-.427-1.237-.256-1.408l.128-1.664v-2.304c.171-1.024.256-2.475.256-4.352.085-1.621.213-2.688.384-3.2.256-1.024.384-1.621.384-1.792.683-1.451 1.92-2.517 3.712-3.2 1.109-.768 2.219-1.067 3.328-.896 1.024-.085 2.517.469 4.48 1.664.939.085 1.664.171 2.176.256 1.109.171 1.664 1.408 1.664 3.712.341 1.707.171 2.901-.512 3.584-1.365 8.875-2.048 14.208-2.048 16 .085 1.707.128 3.413.128 5.12l.64 5.504z" fill="#e0e0e0"/><mask id="A" maskUnits="userSpaceOnUse" x="70" y="84" width="338" height="250" mask-type="alpha"><path d="M70.319 89.588c.933 8.133 4.933 15.6 10.4 19.334 2.533 1.6 5.333 4.8 6.133 6.933.933 2 2.933 4.533 4.667 5.333 1.6.934 13.867 2.534 27.334 3.734 21.866 1.866 24.533 2.4 24.533 4.533 0 1.733 1.067 2.4 4.133 2.4 3.734 0 4.134.4 3.334 2.933-.4 1.734-.8 9.2-.8 16.667v13.733h-7.867c-8 0-8 0-8.4 4.134l-.4 4.266-34.667.267-.8 16.667h52.534l-.8 19.6c-.534 10.933-1.334 35.866-1.734 55.733-.8 30.267-1.2 36.267-3.066 37.467-1.6 1.2-2 4.533-2.134 15.866v14.4h15.067c8.4-.133 15.6-.533 16-1.066.533-.534.8-6.667.533-13.734-.4-10.533-.933-13.333-2.933-15.066-2.133-1.867-2.4-4.4-2.533-22-.134-10.934-.8-34.934-1.467-53.2l-1.333-35.734c0-2.133 4.266-2.266 71.866-2.266l72.534.933c.266.667-.267 25.067-1.2 54.4l-1.067 53.867c.267.4-.533 1.866-2 3.333-1.867 2.133-2.667 5.733-3.333 16.533-.4 7.467-.4 13.6.133 13.6 2.533.134 29.2.267 30.933.134 2.667-.134 1.067-28.134-1.733-29.734-1.467-.8-2-8-2.667-34l-1.6-56.133-.8-22.933h52.267v-16.667h-35.333l-.4-4.267c-.4-4.266-.4-4.266-8.667-4.666l-8.267-.4-.8-32.667h4.134c2.933 0 4-.667 4-2.4 0-2.133 2.666-2.533 24.133-4.533 25.733-2.4 29.733-3.6 32.267-10.267.666-1.867 3.2-4.667 5.333-6.133 5.733-3.734 10-10.401 11.067-17.467.933-6.533.266-8.4-2.4-6.133-4.534 3.733-37.2 9.6-68.4 12.4-22.534 1.867-168.534 1.867-192.667 0-32.933-2.667-58-7.2-71.2-12.8-2.267-1.067-2.533-.667-1.867 5.067zm24.4 6.8c10.134 2 39.867 6.134 44.134 6.134.933 0 1.866.533 1.866 1.2s-2.266 1.066-4.933.8l-16.4-1.467c-12.533-.933-13.067-.933-25.067-3.334-6.533-1.333-9.067-1.333-10.933-.133-2 1.2-2.933 1.067-4.667-.533-1.067-1.067-2-2.933-2-4.133 0-2.267-.4-2.267 18 1.467zm304.934-2.4c1.333 1.2-.4 5.6-2.534 6.4-1.2.534-2.933.134-3.866-.666-1.867-1.6-5.467-1.2-17.867 1.334-3.333.667-13.2 1.733-22 2.267-22.8 1.466-23.867 1.466-25.333.666-.667-.4 6.533-1.466 16-2.4 18.933-1.6 40.4-4.8 46.666-6.933 4.667-1.467 8-1.733 8.934-.667zm-310.134 7.334c15.2 5.733 78.934 8.4 173.2 7.466 82-.933 106.667-2.533 127.067-8.4 5.2-1.467 3.867 5.334-2.4 11.734-6 6.4-8.8 7.066-34.667 8.533-16.133.933-16.666 1.067-22.666 5.6-3.334 2.533-6.4 5.6-6.934 6.8s-.933 8.267-.933 15.6c-.133 11.733.267 14 2.667 17.067 1.466 1.866 4 3.466 5.6 3.466 4.933 0 8.933 1.6 8.933 3.334 0 4 6.267 5.866 20.267 6.266 13.066.4 13.733.534 14.133 3.334.267 1.733 0 3.2-.667 3.2-3.2.666-13.466.933-28 1.066-24.266.134-22.266-5.333-21.066 55.867.533 27.6 1.466 51.867 2.133 54 .667 2.267.8 4.533.4 5.067-.8 1.333-14.267 1.6-15.6.4-.4-.534-.4-1.867.267-3.067s1.466-18 2-37.467l1.733-52.133c.8-16.133.667-17.067-2.133-19.333-4.267-3.734-10.267-4-81.067-3.2-59.333.666-64.533.8-67.067 3.066-2.666 2.267-2.8 3.2-2.133 25.334l1.6 52.266c.4 16.134 1.333 30.267 2 31.467 1.6 3.067.267 3.867-6.933 3.867-7.734 0-11.067-1.067-9.467-3.2 1.6-1.867 2.667-23.2 3.733-70.8.8-34.8.667-37.467-1.466-39.334-1.867-1.6-7.734-2.133-25.2-2.666l-22.8-.667-.4-3.733-.4-3.6h12.666c13.734 0 17.867-.934 21.867-5.334 1.467-1.6 4.667-3.2 7.067-3.466 8-1.2 9.333-3.867 10-19.334.266-7.466.133-15.066-.267-16.8-.533-1.733-3.6-4.933-7.067-7.333-5.6-3.867-7.333-4.267-20.8-5.2-28-1.733-29.6-2.133-36.933-8.933-4-3.867-6.4-7.334-6.4-9.2 0-3.467.933-3.734 6.133-1.6zm61.867 2.266c0 .667-2.133 1.2-4.667 1.2s-4.666-.533-4.666-1.2c0-.533 2.133-1.066 4.666-1.066s4.667.533 4.667 1.066zm16 204.134c1.467 2.8 2.133 17.733.8 19.866-.8 1.334-14.133 1.867-18.4.667-2-.4-2.4-2.133-2.4-8.4 0-4.267.533-9.333 1.333-11.2 1.2-3.2 1.867-3.467 9.2-3.467 6.534 0 8.267.534 9.467 2.534zm160-1.2c1.333.8 2.133 4.266 2.4 11.2.667 11.333.533 11.466-11.733 11.2-10-.134-10.934-1.2-9.867-10.8 1.333-12 2-12.934 10.267-12.934 3.866 0 7.866.667 8.933 1.334zM174.053 123.855c-1.467.4-4.8 2.4-7.334 4.4l-4.666 3.733v16.534c0 15.866.133 16.666 3.066 18.666 1.734 1.067 4.934 2.267 7.067 2.4 2.133.267 5.733 2.4 8.133 4.667l4.134 4.267h19.6c22.933 0 27.866-1.467 29.2-8.4.4-2.4.666-12.534.666-22.667-.133-25.6 2-24-30.933-24.133-14.4-.134-27.333.133-28.933.533zm54.666 4c.4 0 .667 10.133.667 22.667 0 12.4-.267 22.666-.667 22.666l-23.333.267-22.667.133-.4-4.266c-.4-4.134-.4-4.134-8.4-4.134h-7.866v-33.333h3.2c1.866 0 3.333-.933 3.733-2.4.667-2.4-1.467-2.267 55.733-1.6zm23.6-4.267c-8 .667-8.8 3.067-8.8 27.334-.133 20.666 0 21.2 3.2 24.4 3.334 3.2 3.6 3.333 24.934 3.066l21.6-.133 3.733-4c2.533-2.667 5.467-4.267 8.933-4.667 8.667-1.2 9.867-3.6 10-20 .134-8-.266-15.466-.8-16.8-.666-1.2-3.733-3.866-6.8-5.866-5.466-3.334-6.133-3.467-28.266-3.6-12.4-.134-24.934 0-27.734.266zm51.6 6.134c-.133 1.466.934 2.133 3.6 2.133h3.867v33.333h-17.6l.933 4c.534 2.134.4 4-.266 4-2.667.134-43.867.134-45.067 0-1.467 0-1.867-44.266-.4-45.333.4-.4 13.067-.533 28-.4 23.6.267 27.067.533 26.933 2.267z" fill="#000"/></mask><g mask="url(#A)"><path d="M240.251 480c132.549 0 240-107.452 240-240S372.8 0 240.251 0s-240 107.452-240 240 107.452 240 240 240z" fill="#fff"/></g></svg>